<svg xmlns="http://www.w3.org/2000/svg" width="20" height="20" viewBox="0 0 20 20"><defs><style>.a{fill:#c2c2c2;}</style></defs><path class="a" d="M10,0A10.039,10.039,0,0,0,0,10,10.379,10.379,0,0,0,7.656,20V16.692a2.408,2.408,0,0,1-2.7-1.2c-.227-.383-.63-.8-1.05-.768l-.1-1.167a2.41,2.41,0,0,1,2.161,1.337,1.3,1.3,0,0,0,.752.643A1.575,1.575,0,0,0,7.7,15.45a2.747,2.747,0,0,1,.689-1.409h0c-2.6-.388-3.643-1.77-4.055-2.861a4.588,4.588,0,0,1,.712-4.4.157.157,0,0,0,.04-.121A3.836,3.836,0,0,1,5.2,4.1a4.049,4.049,0,0,1,2.219.835L7.7,5.1c.117.07.081.03.2.021a8.487,8.487,0,0,1,2.1-.3,8.523,8.523,0,0,1,2.128.3l.091.009c-.008,0,.025-.006.079-.038,2.03-1.23,1.957-.828,2.5-1a3.9,3.9,0,0,1,.114,2.562,4.8,4.8,0,0,1,.752,4.522c-.412,1.091-1.45,2.473-4.055,2.861h0a2.571,2.571,0,0,1,.733,1.829V20A10.379,10.379,0,0,0,20,10,10.039,10.039,0,0,0,10,0Zm0,0"/></svg>