<svg xmlns="http://www.w3.org/2000/svg" width="30" height="23.75" viewBox="0 0 30 23.75"><defs><style>.a{fill:#c2c2c2;}</style></defs><path class="a" d="M27.606,5.291,30,3V2.5H21.708L15.8,17.21,9.074,2.5H.379V3l2.8,3.366a1.173,1.173,0,0,1,.379.979V20.575a1.508,1.508,0,0,1-.4,1.312L0,25.7v.5H8.931v-.5l-3.15-3.811a1.555,1.555,0,0,1-.434-1.312V9.133l7.84,17.074H14.1L20.84,9.132v13.6c0,.359,0,.433-.235.668L18.18,25.748v.5H29.945v-.5L27.608,23.46a.7.7,0,0,1-.267-.668V5.959a.692.692,0,0,1,.266-.668Z" transform="translate(0 -2.5)"/></svg>