<svg xmlns="http://www.w3.org/2000/svg" width="326" height="390" viewBox="0 0 326 390"><defs><style>.a{opacity:0.1;}.b,.d{fill:none;}.b{stroke:#676767;stroke-width:4px;}.c{stroke:none;}</style></defs><g transform="translate(-1059 -843)"><g class="a" transform="translate(1868.182 -952.349)"><g class="b" transform="translate(-809.182 1815.349)"><rect class="c" width="306" height="285"/><rect class="d" x="2" y="2" width="302" height="281"/></g><g class="b" transform="translate(-789.182 1795.349)"><rect class="c" width="306" height="285"/><rect class="d" x="2" y="2" width="302" height="281"/></g><g class="b" transform="translate(-809.182 1815.349)"><rect class="c" width="306" height="285"/><rect class="d" x="2" y="2" width="302" height="281"/></g><g class="b" transform="translate(-789.182 1795.349)"><rect class="c" width="306" height="285"/><rect class="d" x="2" y="2" width="302" height="281"/></g></g><g class="a" transform="translate(1998.182 -867.349)"><g class="b" transform="translate(-809.182 1815.349)"><rect class="c" width="176" height="285"/><rect class="d" x="2" y="2" width="172" height="281"/></g><g class="b" transform="translate(-789.182 1795.349)"><rect class="c" width="176" height="285"/><rect class="d" x="2" y="2" width="172" height="281"/></g><g class="b" transform="translate(-809.182 1815.349)"><rect class="c" width="176" height="285"/><rect class="d" x="2" y="2" width="172" height="281"/></g><g class="b" transform="translate(-789.182 1795.349)"><rect class="c" width="176" height="285"/><rect class="d" x="2" y="2" width="172" height="281"/></g></g></g></svg>